<?xml version="1.0" encoding="utf-8"?>
<!-- Generator: Adobe Illustrator 16.0.0, SVG Export Plug-In . SVG Version: 6.00 Build 0)  -->
<!DOCTYPE svg PUBLIC "-//W3C//DTD SVG 1.1//EN" "http://www.w3.org/Graphics/SVG/1.1/DTD/svg11.dtd">
<svg version="1.1" id="Layer_1" xmlns="http://www.w3.org/2000/svg" xmlns:xlink="http://www.w3.org/1999/xlink" x="0px" y="0px"
	 width="190px" height="25px" viewBox="0 0 190 25" enable-background="new 0 0 190 25" xml:space="preserve">
<g>
	<path d="M11.896,5.881H4.755v5.134h5.969c0.553,0,0.966,0.14,1.239,0.418c0.272,0.278,0.409,0.65,0.409,1.116
		c0,0.465-0.139,0.835-0.415,1.109c-0.277,0.273-0.688,0.41-1.233,0.41H4.755v6.611c0,0.84-0.169,1.463-0.506,1.869
		c-0.338,0.405-0.771,0.608-1.3,0.608c-0.537,0-0.975-0.205-1.312-0.615C1.299,22.131,1.13,21.511,1.13,20.68V5.238
		c0-0.584,0.077-1.061,0.232-1.431C1.516,3.438,1.758,3.168,2.087,3c0.33-0.168,0.751-0.253,1.264-0.253h8.545
		c0.578,0,1.007,0.144,1.288,0.432c0.28,0.287,0.421,0.664,0.421,1.129c0,0.475-0.141,0.855-0.421,1.143
		C12.903,5.738,12.474,5.881,11.896,5.881z"/>
	<path d="M24.176,2.404c1.855,0,3.449,0.422,4.779,1.266c1.331,0.844,2.338,2.044,3.021,3.601s1.025,3.384,1.025,5.483
		c0,1.553-0.188,2.962-0.562,4.23c-0.375,1.269-0.936,2.367-1.685,3.299s-1.668,1.644-2.759,2.136
		c-1.091,0.493-2.34,0.739-3.748,0.739c-1.4,0-2.653-0.254-3.76-0.76s-2.031-1.221-2.771-2.144c-0.741-0.921-1.3-2.03-1.679-3.325
		c-0.378-1.297-0.567-2.697-0.567-4.204c0-1.542,0.197-2.957,0.592-4.244s0.966-2.382,1.715-3.286
		c0.749-0.903,1.66-1.595,2.734-2.074C21.588,2.644,22.809,2.404,24.176,2.404z M29.328,12.727c0-1.469-0.212-2.743-0.635-3.819
		C28.27,7.83,27.666,7.016,26.88,6.463c-0.785-0.552-1.687-0.829-2.704-0.829c-0.725,0-1.394,0.153-2.008,0.459
		c-0.614,0.306-1.143,0.75-1.587,1.334c-0.443,0.584-0.793,1.331-1.05,2.239c-0.256,0.908-0.384,1.928-0.384,3.06
		c0,1.141,0.128,2.172,0.384,3.094c0.257,0.923,0.619,1.687,1.087,2.293c0.468,0.607,1.005,1.062,1.611,1.361
		c0.606,0.303,1.271,0.452,1.996,0.452c0.928,0,1.78-0.26,2.557-0.78c0.777-0.521,1.396-1.322,1.855-2.41
		C29.098,15.652,29.328,14.314,29.328,12.727z"/>
	<path d="M43.976,2.404c1.855,0,3.449,0.422,4.779,1.266c1.331,0.844,2.338,2.044,3.021,3.601s1.025,3.384,1.025,5.483
		c0,1.553-0.188,2.962-0.562,4.23c-0.375,1.269-0.936,2.367-1.685,3.299s-1.668,1.644-2.759,2.136
		c-1.091,0.493-2.34,0.739-3.748,0.739c-1.4,0-2.653-0.254-3.76-0.76s-2.031-1.221-2.771-2.144c-0.741-0.921-1.3-2.03-1.679-3.325
		c-0.378-1.297-0.567-2.697-0.567-4.204c0-1.542,0.197-2.957,0.592-4.244s0.966-2.382,1.715-3.286
		c0.749-0.903,1.66-1.595,2.734-2.074C41.388,2.644,42.609,2.404,43.976,2.404z M49.127,12.727c0-1.469-0.212-2.743-0.635-3.819
		c-0.423-1.077-1.027-1.892-1.813-2.444c-0.785-0.552-1.687-0.829-2.704-0.829c-0.725,0-1.394,0.153-2.008,0.459
		c-0.614,0.306-1.143,0.75-1.587,1.334c-0.443,0.584-0.793,1.331-1.05,2.239c-0.256,0.908-0.384,1.928-0.384,3.06
		c0,1.141,0.128,2.171,0.384,3.093c0.257,0.924,0.619,1.688,1.087,2.294s1.005,1.062,1.611,1.362s1.271,0.451,1.996,0.451
		c0.928,0,1.78-0.26,2.557-0.779c0.777-0.521,1.396-1.323,1.855-2.41C48.897,15.652,49.127,14.314,49.127,12.727z"/>
	<path d="M58.148,2.746h4.724c1.229,0,2.283,0.128,3.162,0.384c0.879,0.255,1.676,0.734,2.393,1.438
		c1.863,1.789,2.795,4.509,2.795,8.159c0,1.205-0.094,2.305-0.281,3.3c-0.188,0.994-0.476,1.892-0.867,2.688
		c-0.391,0.8-0.891,1.513-1.501,2.144c-0.48,0.483-1.005,0.871-1.575,1.164c-0.57,0.291-1.182,0.496-1.837,0.615
		c-0.655,0.118-1.394,0.178-2.215,0.178h-4.724c-0.659,0-1.156-0.11-1.489-0.334c-0.334-0.225-0.551-0.539-0.653-0.945
		s-0.152-0.934-0.152-1.581V5.238c0-0.876,0.175-1.51,0.525-1.903C56.801,2.943,57.367,2.746,58.148,2.746z M59.552,5.963v13.623
		h2.747c0.602,0,1.074-0.02,1.416-0.057c0.342-0.035,0.696-0.127,1.062-0.272c0.366-0.146,0.684-0.353,0.952-0.616
		c1.212-1.148,1.819-3.131,1.819-5.94c0-1.98-0.267-3.464-0.8-4.449c-0.533-0.986-1.19-1.613-1.971-1.883
		c-0.781-0.269-1.726-0.404-2.832-0.404L59.552,5.963L59.552,5.963z"/>
	<path d="M76.325,7.004c0-0.849,0.197-1.622,0.592-2.32c0.395-0.698,0.974-1.253,1.739-1.664c0.765-0.411,1.664-0.616,2.698-0.616
		c1.025,0,1.912,0.214,2.661,0.643c0.749,0.429,1.308,0.991,1.678,1.684c0.371,0.694,0.556,1.415,0.556,2.163
		c0,1.022-0.301,1.912-0.903,2.669c-0.603,0.758-1.489,1.529-2.661,2.314c0.407,0.539,0.785,1.045,1.135,1.52
		c0.35,0.476,0.688,0.918,1.013,1.328c0.325,0.411,0.623,0.764,0.891,1.055c0.122-0.256,0.311-0.734,0.568-1.438
		c0.256-0.702,0.496-1.209,0.72-1.52c0.224-0.31,0.539-0.465,0.946-0.465c0.382,0,0.72,0.153,1.013,0.458s0.439,0.678,0.439,1.116
		c0,0.401-0.126,0.971-0.378,1.704c-0.252,0.734-0.619,1.55-1.099,2.443c0.301,0.293,0.779,0.735,1.435,1.327
		c0.655,0.595,1.058,0.998,1.208,1.213c0.151,0.215,0.226,0.5,0.226,0.855c0,0.475-0.153,0.873-0.458,1.197
		c-0.306,0.323-0.646,0.484-1.02,0.484c-0.383,0-0.753-0.137-1.111-0.409s-1.119-0.944-2.283-2.013
		c-0.529,0.557-1.076,1.014-1.642,1.369s-1.172,0.621-1.819,0.793c-0.646,0.174-1.369,0.26-2.167,0.26
		c-1.018,0-1.931-0.165-2.741-0.498s-1.483-0.782-2.02-1.35c-0.537-0.564-0.936-1.192-1.196-1.883
		c-0.261-0.688-0.391-1.39-0.391-2.102c0-0.686,0.098-1.313,0.293-1.883c0.195-0.569,0.47-1.086,0.824-1.547s0.79-0.898,1.307-1.313
		c0.517-0.416,1.117-0.819,1.8-1.212c-0.61-0.857-1.072-1.622-1.385-2.293C76.481,8.407,76.325,7.716,76.325,7.004z M79.779,13.563
		c-0.83,0.539-1.451,1.076-1.861,1.615c-0.411,0.538-0.617,1.178-0.617,1.916c0,0.42,0.075,0.821,0.226,1.205
		c0.15,0.383,0.37,0.739,0.659,1.067c0.289,0.329,0.624,0.579,1.007,0.753c0.382,0.174,0.785,0.261,1.208,0.261
		c0.415,0,0.818-0.073,1.208-0.22c0.391-0.146,0.761-0.354,1.111-0.623c0.35-0.27,0.712-0.604,1.086-1.006
		c-0.725-0.748-1.375-1.49-1.953-2.225C81.276,15.572,80.585,14.656,79.779,13.563z M81.024,9.811
		c0.83-0.593,1.43-1.093,1.801-1.499c0.37-0.406,0.555-0.897,0.555-1.472c0-0.566-0.185-1.041-0.555-1.424
		c-0.371-0.383-0.836-0.575-1.398-0.575c-0.562,0-1.032,0.196-1.41,0.589c-0.379,0.393-0.568,0.854-0.568,1.383
		c0,0.273,0.071,0.568,0.213,0.883c0.143,0.315,0.319,0.628,0.531,0.938C80.406,8.943,80.683,9.336,81.024,9.811z"/>
	<path fill="#2A8420" d="M95.648,2.746h4.725c1.229,0,2.283,0.128,3.162,0.384c0.879,0.255,1.676,0.734,2.393,1.438
		c1.863,1.789,2.795,4.509,2.795,8.159c0,1.205-0.094,2.305-0.281,3.3c-0.188,0.994-0.477,1.892-0.866,2.688
		c-0.392,0.8-0.892,1.513-1.5,2.144c-0.479,0.483-1.007,0.871-1.576,1.164c-0.567,0.291-1.183,0.496-1.836,0.615
		c-0.656,0.118-1.396,0.178-2.218,0.178h-4.723c-0.66,0-1.156-0.11-1.49-0.334c-0.334-0.225-0.551-0.539-0.652-0.945
		s-0.152-0.934-0.152-1.581V5.238c0-0.876,0.174-1.51,0.523-1.903C94.302,2.943,94.867,2.746,95.648,2.746z M97.053,5.963v13.623
		h2.746c0.604,0,1.074-0.02,1.416-0.057c0.342-0.035,0.695-0.127,1.063-0.272c0.365-0.146,0.685-0.353,0.951-0.616
		c1.213-1.148,1.82-3.131,1.82-5.94c0-1.98-0.268-3.464-0.801-4.449c-0.533-0.986-1.189-1.613-1.971-1.883
		c-0.781-0.269-1.726-0.404-2.832-0.404L97.053,5.963L97.053,5.963z"/>
	<path fill="#2A8420" d="M116.779,14.232h-1.271v6.447c0,0.85-0.168,1.475-0.502,1.877c-0.334,0.4-0.768,0.602-1.305,0.602
		c-0.578,0-1.025-0.21-1.345-0.629c-0.315-0.42-0.477-1.036-0.477-1.85V5.238c0-0.876,0.176-1.51,0.525-1.903
		c0.35-0.392,0.916-0.589,1.697-0.589h5.896c0.813,0,1.508,0.039,2.086,0.117c0.578,0.078,1.101,0.235,1.563,0.472
		c0.563,0.265,1.059,0.644,1.49,1.136c0.432,0.493,0.758,1.066,0.981,1.718c0.223,0.653,0.336,1.344,0.336,2.074
		c0,1.497-0.377,2.692-1.129,3.587c-0.754,0.895-1.896,1.528-3.425,1.903c0.644,0.383,1.257,0.949,1.843,1.697
		c0.586,0.749,1.108,1.545,1.567,2.389c0.461,0.845,0.818,1.606,1.074,2.286c0.258,0.682,0.385,1.148,0.385,1.402
		c0,0.266-0.073,0.527-0.225,0.787c-0.152,0.262-0.357,0.467-0.617,0.617c-0.26,0.149-0.561,0.226-0.902,0.226
		c-0.407,0-0.75-0.106-1.024-0.321c-0.276-0.214-0.517-0.486-0.715-0.814c-0.199-0.328-0.472-0.813-0.813-1.451l-1.451-2.711
		c-0.521-0.993-0.987-1.752-1.397-2.271c-0.412-0.52-0.828-0.876-1.252-1.068C117.955,14.328,117.422,14.232,116.779,14.232z
		 M118.854,5.799h-3.344v5.517h3.246c0.871,0,1.604-0.084,2.197-0.253c0.594-0.168,1.047-0.456,1.361-0.862
		c0.313-0.406,0.471-0.965,0.471-1.677c0-0.556-0.127-1.047-0.379-1.472c-0.252-0.424-0.604-0.741-1.051-0.951
		C120.934,5.9,120.1,5.799,118.854,5.799z"/>
	<path fill="#2A8420" d="M130.035,20.682V4.868c0-0.821,0.168-1.438,0.5-1.848c0.334-0.411,0.766-0.616,1.295-0.616
		c0.545,0,0.986,0.203,1.324,0.609c0.338,0.406,0.506,1.025,0.506,1.855v15.813c0,0.83-0.168,1.45-0.506,1.861
		c-0.338,0.41-0.779,0.615-1.324,0.615c-0.521,0-0.951-0.207-1.287-0.622C130.205,22.12,130.035,21.502,130.035,20.682z"/>
	<path fill="#2A8420" d="M142.439,4.841l6.969,11.828V4.731c0-0.776,0.148-1.357,0.445-1.746c0.297-0.388,0.698-0.582,1.203-0.582
		c0.521,0,0.932,0.194,1.231,0.582c0.301,0.388,0.453,0.97,0.453,1.746v15.785c0,1.762-0.652,2.643-1.953,2.643
		c-0.326,0-0.619-0.053-0.879-0.157c-0.263-0.104-0.507-0.271-0.732-0.499c-0.229-0.229-0.438-0.495-0.635-0.802
		c-0.194-0.306-0.392-0.618-0.586-0.938l-6.802-11.691v11.76c0,0.767-0.157,1.347-0.475,1.739c-0.318,0.392-0.725,0.588-1.221,0.588
		c-0.514,0-0.924-0.198-1.234-0.596c-0.309-0.396-0.463-0.975-0.463-1.731V5.348c0-0.657,0.064-1.173,0.195-1.547
		c0.154-0.411,0.41-0.746,0.77-1.006c0.357-0.26,0.744-0.39,1.158-0.39c0.326,0,0.605,0.059,0.836,0.178
		c0.232,0.119,0.437,0.278,0.611,0.479c0.174,0.201,0.354,0.461,0.537,0.781C142.055,4.161,142.244,4.494,142.439,4.841z"/>
	<path fill="#2A8420" d="M160.359,4.868v7.037l7.115-8.324c0.342-0.402,0.633-0.698,0.873-0.89c0.239-0.191,0.561-0.287,0.959-0.287
		c0.52,0,0.94,0.171,1.264,0.513c0.32,0.342,0.481,0.76,0.481,1.252c0,0.594-0.272,1.182-0.817,1.766l-4.406,4.682l5.078,8.158
		c0.357,0.566,0.625,1.063,0.805,1.485c0.18,0.425,0.27,0.839,0.27,1.239c0,0.447-0.157,0.835-0.471,1.164
		c-0.314,0.328-0.738,0.492-1.275,0.492c-0.506,0-0.916-0.121-1.231-0.362c-0.317-0.242-0.586-0.563-0.808-0.965
		c-0.219-0.402-0.413-0.767-0.586-1.097l-4.284-7.393l-2.966,3.189v4.147c0,0.841-0.172,1.464-0.514,1.869s-0.781,0.608-1.318,0.608
		c-0.309,0-0.604-0.092-0.891-0.273c-0.285-0.182-0.506-0.429-0.66-0.738c-0.113-0.256-0.182-0.553-0.207-0.891
		c-0.022-0.338-0.037-0.826-0.037-1.465V4.868c0-0.821,0.16-1.438,0.482-1.848s0.76-0.616,1.313-0.616
		c0.546,0,0.986,0.203,1.324,0.609C160.189,3.419,160.359,4.038,160.359,4.868z"/>
	<path fill="#2A8420" d="M188.813,16.792c0,1.215-0.278,2.306-0.836,3.272c-0.557,0.968-1.373,1.726-2.447,2.271
		c-1.073,0.548-2.348,0.821-3.819,0.821c-1.767,0-3.224-0.374-4.371-1.122c-0.813-0.538-1.476-1.258-1.981-2.156
		c-0.51-0.898-0.765-1.773-0.765-2.622c0-0.493,0.152-0.915,0.457-1.267c0.308-0.352,0.695-0.526,1.166-0.526
		c0.384,0,0.707,0.138,0.972,0.41c0.264,0.274,0.489,0.681,0.678,1.219c0.229,0.64,0.475,1.173,0.738,1.603s0.637,0.783,1.117,1.062
		c0.479,0.279,1.11,0.417,1.893,0.417c1.074,0,1.947-0.279,2.617-0.842c0.672-0.563,1.008-1.262,1.008-2.102
		c0-0.666-0.182-1.207-0.543-1.623c-0.363-0.414-0.83-0.731-1.404-0.951c-0.574-0.219-1.34-0.451-2.301-0.697
		c-1.285-0.338-2.361-0.732-3.229-1.185c-0.866-0.452-1.555-1.068-2.063-1.848c-0.51-0.78-0.764-1.75-0.764-2.909
		c0-1.104,0.271-2.085,0.808-2.943c0.536-0.858,1.313-1.517,2.329-1.979c1.019-0.46,2.216-0.691,3.591-0.691
		c1.098,0,2.049,0.153,2.85,0.458c0.802,0.305,1.468,0.712,1.996,1.218c0.529,0.507,0.916,1.039,1.16,1.595
		c0.244,0.556,0.365,1.1,0.365,1.629c0,0.484-0.152,0.919-0.457,1.308c-0.306,0.388-0.687,0.582-1.142,0.582
		c-0.416,0-0.731-0.116-0.947-0.349c-0.215-0.232-0.448-0.614-0.7-1.143c-0.326-0.757-0.718-1.349-1.173-1.773
		c-0.456-0.424-1.188-0.636-2.196-0.636c-0.937,0-1.69,0.23-2.267,0.691c-0.571,0.461-0.858,1.016-0.858,1.664
		c0,0.402,0.099,0.749,0.293,1.041s0.463,0.543,0.806,0.753c0.342,0.21,0.688,0.375,1.039,0.493c0.35,0.119,0.928,0.292,1.731,0.521
		c1.01,0.265,1.922,0.557,2.739,0.876c0.818,0.32,1.515,0.708,2.088,1.164c0.574,0.457,1.021,1.033,1.343,1.732
		C188.652,14.924,188.813,15.779,188.813,16.792z"/>
</g>
</svg>
