<?xml version="1.0" encoding="utf-8"?>
<!-- Generator: Adobe Illustrator 16.0.0, SVG Export Plug-In . SVG Version: 6.00 Build 0)  -->
<!DOCTYPE svg PUBLIC "-//W3C//DTD SVG 1.1//EN" "http://www.w3.org/Graphics/SVG/1.1/DTD/svg11.dtd">
<svg version="1.1" xmlns="http://www.w3.org/2000/svg" xmlns:xlink="http://www.w3.org/1999/xlink" x="0px" y="0px" width="170px"
	 height="70px" viewBox="0 0 170 70" enable-background="new 0 0 170 70" xml:space="preserve">
<g id="Layer_1" display="none">
	<rect x="5.5" y="23.5" display="inline" fill="none" stroke="#36A82B" stroke-miterlimit="10" width="160" height="41"/>
</g>
<g id="Layer_4">
	<g>
		<path d="M12.875,55.583V38.452h8.99c-0.017,0.181-0.033,0.333-0.05,0.456c-0.017,0.124-0.024,0.227-0.024,0.309
			c0,0.074,0.008,0.177,0.024,0.309c0.017,0.131,0.033,0.279,0.05,0.443c-0.627-0.122-1.385-0.212-2.275-0.27l-2.535-0.049h-1.954
			v6.273h3.932c0.157,0,0.383-0.011,0.68-0.031c0.297-0.02,0.55-0.038,0.76-0.055c0.21-0.017,0.48-0.032,0.81-0.049
			c-0.017,0.146-0.033,0.273-0.049,0.379c-0.017,0.106-0.025,0.2-0.025,0.281c0,0.049,0.008,0.135,0.025,0.257
			s0.033,0.269,0.049,0.44c-0.33-0.017-0.6-0.033-0.81-0.049c-0.21-0.017-0.463-0.033-0.76-0.049
			c-0.297-0.017-0.523-0.025-0.68-0.025h-3.932v8.56c-0.182-0.017-0.332-0.028-0.452-0.036c-0.12-0.009-0.221-0.017-0.303-0.024
			c-0.083-0.009-0.202-0.013-0.359-0.013c-0.124,0-0.292,0.008-0.507,0.024S13.065,55.566,12.875,55.583z"/>
		<path d="M24.178,49.494c0-0.889,0.159-1.702,0.476-2.439c0.317-0.738,0.773-1.378,1.367-1.92c0.593-0.542,1.275-0.956,2.046-1.241
			s1.618-0.428,2.541-0.428c1.154,0,2.174,0.249,3.061,0.746s1.577,1.208,2.071,2.134c0.495,0.925,0.742,2.003,0.742,3.233
			c0,0.8-0.136,1.573-0.408,2.323s-0.68,1.421-1.224,2.012s-1.214,1.052-2.009,1.382c-0.796,0.33-1.692,0.495-2.69,0.495
			c-1.096,0-2.102-0.251-3.017-0.752s-1.637-1.23-2.164-2.188S24.178,50.773,24.178,49.494z M30.583,44.236
			c-1.006,0-1.82,0.271-2.442,0.813c-0.623,0.543-1.068,1.243-1.335,2.1c-0.268,0.857-0.402,1.767-0.402,2.729
			c0,0.906,0.134,1.745,0.402,2.516c0.268,0.771,0.699,1.402,1.292,1.892c0.594,0.49,1.344,0.734,2.251,0.734
			c0.898,0,1.643-0.306,2.232-0.918s1.016-1.349,1.28-2.209c0.264-0.861,0.396-1.676,0.396-2.442c0-0.629-0.062-1.243-0.185-1.843
			c-0.124-0.6-0.33-1.154-0.619-1.664c-0.289-0.511-0.672-0.923-1.15-1.237C31.824,44.394,31.251,44.236,30.583,44.236z"/>
		<path d="M38.262,49.494c0-0.889,0.159-1.702,0.476-2.439c0.317-0.738,0.773-1.378,1.367-1.92c0.593-0.542,1.275-0.956,2.046-1.241
			s1.618-0.428,2.541-0.428c1.154,0,2.174,0.249,3.061,0.746s1.577,1.208,2.071,2.134c0.495,0.925,0.742,2.003,0.742,3.233
			c0,0.8-0.136,1.573-0.408,2.323s-0.68,1.421-1.224,2.012s-1.214,1.052-2.009,1.382c-0.796,0.33-1.692,0.495-2.69,0.495
			c-1.096,0-2.102-0.251-3.017-0.752s-1.637-1.23-2.164-2.188S38.262,50.773,38.262,49.494z M44.668,44.236
			c-1.006,0-1.82,0.271-2.442,0.813c-0.623,0.543-1.068,1.243-1.335,2.1c-0.268,0.857-0.402,1.767-0.402,2.729
			c0,0.906,0.134,1.745,0.402,2.516c0.268,0.771,0.699,1.402,1.292,1.892c0.594,0.49,1.344,0.734,2.251,0.734
			c0.898,0,1.643-0.306,2.232-0.918s1.016-1.349,1.28-2.209c0.264-0.861,0.396-1.676,0.396-2.442c0-0.629-0.062-1.243-0.185-1.843
			c-0.124-0.6-0.33-1.154-0.619-1.664c-0.289-0.511-0.672-0.923-1.15-1.237C45.909,44.394,45.335,44.236,44.668,44.236z"/>
		<path d="M63.786,36.777v18.806c-0.166-0.017-0.305-0.028-0.417-0.036c-0.112-0.009-0.204-0.017-0.274-0.024
			c-0.071-0.009-0.181-0.013-0.33-0.013c-0.149,0-0.263,0.004-0.342,0.013c-0.079,0.008-0.172,0.016-0.28,0.024
			c-0.108,0.008-0.237,0.02-0.386,0.036v-2.396c-1.029,1.736-2.482,2.604-4.359,2.604c-0.733,0-1.4-0.124-2.001-0.373
			c-0.601-0.248-1.134-0.632-1.599-1.149s-0.823-1.151-1.074-1.901c-0.251-0.75-0.377-1.63-0.377-2.641
			c0-1.149,0.222-2.203,0.667-3.161s1.081-1.714,1.908-2.269c0.827-0.554,1.78-0.831,2.859-0.831c1.696,0,3.021,0.812,3.977,2.434
			v-9.122c0.215,0.017,0.406,0.032,0.572,0.049c0.166,0.017,0.311,0.024,0.436,0.024c0.116,0,0.257-0.008,0.423-0.024
			S63.554,36.794,63.786,36.777z M61.758,49.273c0-0.782-0.113-1.536-0.339-2.262c-0.227-0.726-0.595-1.327-1.105-1.804
			s-1.169-0.715-1.975-0.715c-2.51,0-3.765,1.862-3.765,5.588c0,1.279,0.275,2.4,0.827,3.362c0.551,0.962,1.428,1.442,2.629,1.442
			c0.905,0,1.638-0.289,2.197-0.868c0.56-0.578,0.955-1.294,1.185-2.146S61.758,50.154,61.758,49.273z"/>
		<path d="M86.105,51.951l3.166,3.607c-0.676-0.065-1.191-0.098-1.545-0.098c-0.166,0-0.387,0.008-0.662,0.024
			c-0.277,0.017-0.538,0.032-0.785,0.049c-0.644-0.921-1.175-1.622-1.596-2.104c-0.461,0.498-0.985,0.934-1.57,1.309
			s-1.208,0.656-1.867,0.844c-0.66,0.188-1.335,0.281-2.028,0.281c-1.41,0-2.566-0.379-3.469-1.137
			c-0.903-0.759-1.354-1.773-1.354-3.045c0-0.774,0.196-1.487,0.587-2.14c0.391-0.652,0.913-1.231,1.564-1.736
			c0.651-0.506,1.414-0.975,2.288-1.406l0.148-0.086c-0.635-0.962-1.076-1.688-1.323-2.176c-0.248-0.489-0.371-1.064-0.371-1.725
			c0-0.75,0.165-1.404,0.495-1.963c0.33-0.558,0.792-0.988,1.385-1.29c0.594-0.301,1.266-0.452,2.016-0.452
			c0.981,0,1.785,0.236,2.412,0.709c0.626,0.474,0.939,1.113,0.939,1.92c0,0.66-0.161,1.26-0.483,1.798
			c-0.322,0.538-0.702,0.994-1.14,1.369s-1.049,0.832-1.833,1.369c0.231,0.286,0.532,0.673,0.903,1.162
			c0.372,0.489,0.771,0.999,1.2,1.528c0.429,0.53,0.768,0.934,1.015,1.211l1.349,1.504c0.512-0.734,1.036-1.543,1.571-2.428
			c0.537-0.884,1.016-1.722,1.436-2.513c0.215,0.367,0.537,0.71,0.967,1.027C88.365,49.103,87.227,50.631,86.105,51.951z
			 M79.416,46.926c-0.042,0.024-0.079,0.045-0.111,0.062c-0.033,0.017-0.062,0.036-0.086,0.062
			c-0.866,0.546-1.543,1.135-2.034,1.767c-0.49,0.632-0.735,1.396-0.735,2.292c0,0.677,0.165,1.299,0.494,1.865
			s0.779,1.007,1.348,1.32c0.568,0.314,1.194,0.471,1.878,0.471c0.865,0,1.652-0.214,2.361-0.642
			c0.708-0.428,1.256-0.834,1.644-1.217C82.138,50.443,80.552,48.45,79.416,46.926z M80.648,45.349
			c0.805-0.563,1.436-1.147,1.892-1.755c0.457-0.606,0.685-1.31,0.685-2.109c0-0.398-0.084-0.756-0.253-1.069
			s-0.405-0.564-0.708-0.752c-0.304-0.188-0.658-0.281-1.061-0.281c-0.69,0-1.221,0.222-1.591,0.666
			c-0.37,0.444-0.555,1.009-0.555,1.693C79.057,42.695,79.587,43.897,80.648,45.349z"/>
		<path d="M100.438,55.51V38.452h5.75h1.743c1.212,0,2.255,0.098,3.129,0.294c0.874,0.195,1.689,0.599,2.448,1.21
			c0.898,0.726,1.574,1.637,2.028,2.733c0.453,1.097,0.68,2.272,0.68,3.527c0,1.108-0.13,2.12-0.39,3.032
			c-0.26,0.913-0.626,1.723-1.101,2.428c-0.474,0.705-1.04,1.347-1.7,1.926c-0.503,0.439-1.062,0.793-1.675,1.058
			c-0.614,0.265-1.233,0.456-1.855,0.574s-1.238,0.194-1.849,0.227s-1.368,0.049-2.275,0.049H100.438z M102.663,39.455v14.93
			c0.198,0.008,0.509,0.026,0.934,0.055c0.425,0.029,0.848,0.052,1.268,0.067c0.421,0.017,0.759,0.024,1.014,0.024
			c1.798,0,3.199-0.248,4.205-0.745c1.286-0.645,2.215-1.586,2.788-2.825s0.859-2.694,0.859-4.365c0-1.345-0.143-2.472-0.427-3.381
			c-0.284-0.908-0.74-1.648-1.366-2.219c-0.627-0.571-1.44-0.986-2.442-1.248c-1.002-0.261-2.216-0.391-3.642-0.391
			c-0.511,0-1.076,0.014-1.694,0.043C103.541,39.429,103.042,39.447,102.663,39.455z"/>
		<path d="M119.604,55.583V43.612c0.215,0.017,0.408,0.033,0.581,0.049c0.174,0.017,0.317,0.024,0.434,0.024
			c0.106,0,0.245-0.008,0.414-0.024c0.169-0.016,0.369-0.032,0.6-0.049v2.507l0.124-0.306c0.997-1.565,2.061-2.348,3.19-2.348
			c0.329,0,0.589,0.041,0.778,0.122l-0.346,2.104c-0.074-0.017-0.247-0.088-0.52-0.214c-0.272-0.127-0.499-0.19-0.681-0.19
			c-0.296,0-0.593,0.054-0.89,0.159c-0.297,0.106-0.54,0.266-0.729,0.478c-0.404,0.464-0.66,0.915-0.767,1.351
			c-0.107,0.437-0.161,1.046-0.161,1.828v6.48c-0.165-0.017-0.303-0.028-0.414-0.036c-0.111-0.009-0.204-0.017-0.278-0.024
			c-0.074-0.009-0.182-0.013-0.321-0.013c-0.157,0-0.258,0.002-0.304,0.006c-0.045,0.004-0.138,0.013-0.277,0.024
			C119.897,55.553,119.753,55.566,119.604,55.583z"/>
		<path d="M130.796,39.963c0,0.319-0.117,0.596-0.353,0.829c-0.234,0.233-0.513,0.351-0.835,0.351c-0.313,0-0.589-0.119-0.828-0.356
			s-0.358-0.512-0.358-0.823c0-0.328,0.119-0.606,0.358-0.836s0.516-0.345,0.828-0.345c0.322,0,0.601,0.113,0.835,0.338
			C130.679,39.346,130.796,39.627,130.796,39.963z M130.573,43.612v11.971c-0.165-0.017-0.303-0.028-0.414-0.036
			c-0.111-0.009-0.204-0.017-0.278-0.024c-0.074-0.009-0.182-0.013-0.321-0.013c-0.157,0-0.258,0.002-0.303,0.006
			c-0.046,0.004-0.139,0.013-0.278,0.024c-0.141,0.013-0.285,0.026-0.433,0.043V43.612c0.214,0.017,0.407,0.033,0.581,0.049
			c0.173,0.017,0.317,0.024,0.433,0.024c0.106,0,0.245-0.008,0.414-0.024C130.143,43.646,130.343,43.629,130.573,43.612z"/>
		<path d="M135.025,55.583V43.612c0.214,0.017,0.408,0.033,0.581,0.049c0.173,0.017,0.317,0.024,0.433,0.024
			c0.107,0,0.245-0.008,0.414-0.024c0.169-0.016,0.369-0.032,0.6-0.049v2.287c0.932-1.622,2.288-2.434,4.068-2.434
			c1.46,0,2.505,0.394,3.135,1.18c0.631,0.787,0.946,2.02,0.946,3.699v7.238c-0.165-0.017-0.303-0.028-0.414-0.036
			c-0.111-0.009-0.202-0.017-0.272-0.024c-0.07-0.009-0.179-0.013-0.327-0.013c-0.157,0-0.272,0.004-0.347,0.013
			c-0.074,0.008-0.167,0.016-0.278,0.024c-0.111,0.008-0.241,0.02-0.39,0.036v-6.664c0-0.855-0.074-1.585-0.223-2.188
			s-0.431-1.082-0.847-1.437s-0.995-0.532-1.737-0.532c-1.245,0-2.108,0.416-2.591,1.247c-0.482,0.832-0.724,2.087-0.724,3.767
			v5.808c-0.165-0.017-0.303-0.028-0.414-0.036c-0.111-0.009-0.204-0.017-0.278-0.024c-0.074-0.009-0.182-0.013-0.321-0.013
			c-0.156,0-0.258,0.002-0.303,0.006c-0.046,0.004-0.139,0.013-0.278,0.024C135.317,55.553,135.174,55.566,135.025,55.583z"/>
		<path d="M151.187,36.777v11.225c0,0.335,0.008,0.546,0.024,0.636s0.05,0.151,0.1,0.184c0.47,0,1.203-0.493,2.201-1.479l1.57-1.577
			l1.979-2.152c0.214,0.017,0.408,0.033,0.581,0.049c0.173,0.017,0.317,0.024,0.433,0.024c0.091,0,0.221-0.008,0.39-0.024
			c0.169-0.016,0.369-0.032,0.6-0.049v0.184c-0.264,0.236-0.497,0.437-0.698,0.599c-0.202,0.164-0.66,0.543-1.373,1.138
			s-1.409,1.196-2.09,1.804c-0.68,0.607-1.152,1.037-1.416,1.29c0.272,0.302,0.642,0.724,1.107,1.266
			c0.465,0.542,1.01,1.172,1.632,1.889c0.622,0.718,1.189,1.369,1.7,1.956s1.014,1.162,1.509,1.725v0.122
			c-0.215-0.017-0.386-0.028-0.514-0.036c-0.128-0.009-0.236-0.017-0.327-0.024c-0.091-0.009-0.223-0.013-0.396-0.013
			c-0.198,0-0.326,0.002-0.384,0.006s-0.173,0.013-0.346,0.024c-0.174,0.013-0.351,0.026-0.532,0.043
			c-0.379-0.497-1-1.243-1.861-2.237c-0.861-0.995-1.856-2.128-2.986-3.399c-0.239-0.261-0.433-0.392-0.581-0.392
			c-0.214,0-0.321,0.306-0.321,0.917v5.111c-0.165-0.017-0.303-0.028-0.414-0.036c-0.111-0.009-0.204-0.017-0.278-0.024
			c-0.074-0.009-0.182-0.013-0.321-0.013c-0.157,0-0.258,0.002-0.304,0.006c-0.045,0.004-0.138,0.013-0.277,0.024
			c-0.141,0.013-0.285,0.026-0.434,0.043V36.777c0.215,0.017,0.408,0.032,0.581,0.049c0.174,0.017,0.317,0.024,0.434,0.024
			c0.106,0,0.245-0.008,0.414-0.024S150.956,36.794,151.187,36.777z"/>
	</g>
</g>
<g id="Layer_3">
	<line fill="none" stroke="#36A82B" stroke-miterlimit="10" x1="5.625" y1="23" x2="5.563" y2="64.688"/>
	<line fill="none" stroke="#36A82B" stroke-miterlimit="10" x1="5" y1="64.5" x2="165" y2="64.5"/>
	<line fill="none" stroke="#36A82B" stroke-miterlimit="10" x1="164.5" y1="65" x2="164.5" y2="23"/>
	<line fill="none" stroke="#36A82B" stroke-miterlimit="10" x1="39" y1="23.5" x2="6" y2="23.5"/>
	<line fill="none" stroke="#36A82B" stroke-miterlimit="10" x1="164" y1="23.5" x2="131" y2="23.5"/>
</g>
<g id="Layer_2">
	<image overflow="visible" width="195" height="268" xlink:href="ngon.png"  transform="matrix(0.0868 0 0 0.0868 73.0073 0.4956)">
	</image>
	
		<image overflow="visible" width="398" height="365" xlink:href="la.png"  transform="matrix(-0.0629 -0.0399 -0.0389 0.0615 123.5781 20.3008)">
	</image>
	
		<image overflow="visible" width="398" height="365" xlink:href="la.png"  transform="matrix(0.0629 -0.0399 0.0389 0.0615 45.189 20.4663)">
	</image>
	<g>
	</g>
	<g>
	</g>
	<g>
	</g>
	<g>
	</g>
	<g>
	</g>
	<g>
	</g>
	<g>
	</g>
	<g>
	</g>
	<g>
	</g>
	<g>
	</g>
	<g>
	</g>
	<g>
	</g>
	<g>
	</g>
	<g>
	</g>
	<g>
	</g>
</g>
</svg>
